<?xml version="1.0" encoding="UTF-8" standalone="no"?>
<!-- Created with Inkscape (http://www.inkscape.org/) -->

<svg
   xmlns:dc="http://purl.org/dc/elements/1.1/"
   xmlns:cc="http://creativecommons.org/ns#"
   xmlns:rdf="http://www.w3.org/1999/02/22-rdf-syntax-ns#"
   xmlns:svg="http://www.w3.org/2000/svg"
   xmlns="http://www.w3.org/2000/svg"
   xmlns:sodipodi="http://sodipodi.sourceforge.net/DTD/sodipodi-0.dtd"
   xmlns:inkscape="http://www.inkscape.org/namespaces/inkscape"
   version="1.1"
   id="svg45"
   width="1024"
   height="1536"
   viewBox="0 0 1024 1536"
   sodipodi:docname="RestaurantWheel.svg"
   inkscape:version="0.92.5 (2060ec1f9f, 2020-04-08)">
  <metadata
     id="metadata51">
    <rdf:RDF>
      <cc:Work
         rdf:about="">
        <dc:format>image/svg+xml</dc:format>
        <dc:type
           rdf:resource="http://purl.org/dc/dcmitype/StillImage" />
        <dc:title></dc:title>
      </cc:Work>
    </rdf:RDF>
  </metadata>
  <defs
     id="defs49" />
  <sodipodi:namedview
     pagecolor="#ffffff"
     bordercolor="#666666"
     borderopacity="1"
     objecttolerance="10"
     gridtolerance="10"
     guidetolerance="10"
     inkscape:pageopacity="0"
     inkscape:pageshadow="2"
     inkscape:window-width="1680"
     inkscape:window-height="1050"
     id="namedview47"
     showgrid="false"
     inkscape:zoom="0.54361979"
     inkscape:cx="510.16048"
     inkscape:cy="768"
     inkscape:window-x="0"
     inkscape:window-y="0"
     inkscape:window-maximized="1"
     inkscape:current-layer="svg45" />
  <path
     style="fill:#000000"
     d="m 288.11279,1202.3733 c -0.38937,-0.6496 -7.51605,-25.5208 -21.19074,-73.953 -2.0503,-7.2616 -3.45391,-13.9167 -3.11913,-14.7891 0.50371,-1.3127 2.11101,-1.5364 9.32005,-1.2971 l 8.71137,0.2892 8.10577,29 c 4.45817,15.95 8.33391,29.6405 8.61276,30.4233 0.27885,0.7829 4.26717,-11.8171 8.86294,-28 4.59578,-16.1828 8.78738,-29.9858 9.31467,-30.6733 0.60328,-0.7866 3.5165,-1.25 7.85771,-1.25 6.20068,0 6.9971,0.2277 7.8682,2.25 0.53306,1.2375 4.60724,14.8463 9.05374,30.2418 4.4465,15.3956 8.26512,28.1725 8.48582,28.3932 0.6676,0.6676 1.48303,-2.0801 9.43446,-31.7905 l 7.6528,-28.5945 8.8393,-0.2912 c 4.86162,-0.1602 9.215,0.084 9.67419,0.5436 0.45918,0.4592 -4.89975,20.8402 -11.90875,45.2912 l -12.74364,44.4564 h -10 -10 l -8.00076,-28.1674 c -4.40042,-15.4921 -8.24138,-28.4081 -8.53547,-28.7022 -0.29409,-0.2941 -3.84136,11.4813 -7.88283,26.1675 -4.04148,14.6861 -7.72688,27.7146 -8.18979,28.9521 -0.79137,2.1156 -1.40711,2.25 -10.30738,2.25 -5.20616,0 -9.66804,-0.3375 -9.91529,-0.75 z m 115.95272,-0.7946 c -0.34164,-0.8904 -0.6212,-20.6212 -0.6212,-43.8461 0,-32.5643 0.2907,-42.6246 1.2704,-43.9644 1.0579,-1.4468 2.6046,-1.6878 9.25,-1.4411 l 7.9796,0.2962 0.2736,17.25 0.2736,17.25 h 19.4528 19.4528 l 0.2736,-17.25 0.2736,-17.25 h 8.5 8.5 v 45 45 h -8.5 -8.5 l -0.2721,-18.75 -0.272,-18.75 h -19.4559 -19.4559 l -0.272,18.75 -0.2721,18.75 -8.6288,0.2872 c -7.2024,0.2397 -8.7314,0.02 -9.25,-1.3318 z m 102.0615,0.8939 c -0.9692,-0.9691 -0.8213,-87.5827 0.1521,-89.1163 0.6231,-0.9816 6.7563,-1.2068 27.2347,-1 l 26.4305,0.267 v 8 8 l -17.75,0.2731 -17.75,0.273 v 9.477 9.4769 l 14.75,0.015 c 8.1125,0.01 15.3327,0.385 16.045,0.8368 0.9255,0.5872 1.2108,3.0795 1,8.7347 l -0.295,7.9132 -15.75,0.2754 -15.75,0.2754 v 9.9515 9.9516 l 17.75,0.273 17.75,0.2731 v 8 8 l -26.5673,0.266 c -14.6121,0.1463 -26.8746,-0.041 -27.25,-0.4167 z m 78.775,-0.5993 c -0.2637,-0.6875 -0.362,-21.05 -0.2186,-45.25 l 0.2609,-44 25.8769,-0.2671 c 18.2528,-0.1885 26.2814,0.069 27.25,0.8724 1.7397,1.4438 1.8757,12.9921 0.1731,14.6947 -0.8409,0.8408 -6.3778,1.2 -18.5,1.2 h -17.3 v 9.5 9.5 h 15.3 c 10.5667,0 15.6712,0.3712 16.5,1.2 1.5805,1.5805 1.5805,14.0195 0,15.6 -0.8288,0.8288 -5.9333,1.2 -16.5,1.2 h -15.3 v 10 10 h 17.4648 c 16.2435,0 17.5372,0.1353 18.5,1.9343 1.1333,2.1174 1.3588,9.2563 0.4049,12.8157 l -0.603,2.25 h -26.4147 c -20.2094,0 -26.5274,-0.2936 -26.8943,-1.25 z m 77.2257,0.6001 c -0.8442,-0.8442 -0.918,-86.5751 -0.076,-88.7683 0.486,-1.2663 2.2598,-1.5818 8.8931,-1.5818 6.6332,0 8.407,0.3155 8.893,1.5818 0.3338,0.87 0.607,17.5088 0.607,36.9752 v 35.3935 l 16.25,0.2747 16.25,0.2748 v 8 8 l -25.0666,0.2668 c -13.7866,0.1467 -25.3741,-0.041 -25.75,-0.4167 z M 261.46855,1073.5863 c -3.01166,-0.8456 -7.3243,-2.6209 -9.58364,-3.9449 -4.38792,-2.5715 -11.4406,-9.7687 -11.4406,-11.6751 0,-1.0595 5.70061,-6.4555 10.25909,-9.7108 1.71349,-1.2236 2.30131,-0.9981 5.57812,2.1398 8.83924,8.4648 20.21244,9.7693 26.89666,3.085 2.05349,-2.0534 2.39975,-3.1462 1.92465,-6.0739 -0.83086,-5.1199 -3.70081,-7.6433 -15.41256,-13.5514 -13.85799,-6.9907 -19.01648,-11.0355 -22.44578,-17.5999 -5.73221,-10.9727 -2.16047,-24.65696 8.23058,-31.53336 8.4799,-5.6118 19.47149,-6.9225 30.21733,-3.6035 6.42528,1.9846 15.75191,8.7212 15.75191,11.3777 0,1.25 -9.04889,10.62736 -10.25511,10.62736 -0.37753,0 -2.76128,-1.4625 -5.29723,-3.24996 -4.059,-2.8611 -5.38931,-3.25 -11.11582,-3.25 -5.8876,0 -6.73407,0.2663 -8.91842,2.8058 -5.71853,6.64806 -1.38779,12.21916 16.02954,20.62036 13.04956,6.2943 18.70162,11.4542 20.99082,19.1628 1.97455,6.649 1.97132,10.1839 -0.0154,16.8739 -2.00864,6.7638 -9.1688,14.0764 -16.12245,16.4657 -7.02113,2.4124 -18.66674,2.8891 -25.27168,1.0344 z m 234.35926,0.189 c -9.9147,-2.5298 -17.6909,-8.6916 -22.6274,-17.9298 -2.195,-4.1079 -2.2642,-5.1421 -2.5566,-38.1987 -0.3441,-38.92006 -0.9294,-36.52346 8.9202,-36.52346 9.2687,0 8.8803,-1.4218 8.8803,32.50626 0,18.372 0.3993,30.4173 1.0666,32.1786 2.4855,6.5598 8.803,10.6008 16.573,10.6008 5.8667,0 10.4799,-2.2156 13.7559,-6.6065 2.0083,-2.6919 2.1274,-4.269 2.6045,-34.5 0.275,-17.42356 0.8641,-32.24166 1.309,-32.92916 0.9737,-1.5043 15.2625,-1.7524 16.172,-0.2807 0.9492,1.5359 0.6355,65.19576 -0.3379,68.55916 -4.0132,13.8672 -15.8637,22.9547 -31.2309,23.9493 -4.4432,0.2876 -9.4616,-0.043 -12.5287,-0.8258 z m -404.183497,-1.852 c -0.8967,-0.8967 -1.2,-12.2395 -1.2,-44.8776 0,-37.37896 0.21382,-43.85486 1.48278,-44.90806 1.09669,-0.9102 6.36947,-1.1282 20.249997,-0.8372 18.10553,0.3795 18.988,0.4941 25.02902,3.25 11.43085,5.2147 17.66533,14.8185 17.57487,27.07286 -0.0794,10.7584 -4.45738,19.0839 -12.82614,24.3912 l -4.22726,2.6808 9.85768,16.3106 c 5.42173,8.9708 9.60643,16.7171 9.29935,17.214 -0.30708,0.4969 -4.71415,0.9034 -9.79348,0.9034 h -9.23515 l -8.8186,-16 -8.8186,-16 h -5.38724 -5.38723 v 13.4349 c 0,7.3892 -0.43886,14.5892 -0.97525,16 -0.92435,2.4312 -1.35749,2.5651 -8.3,2.5651 -4.363687,0 -7.809847,-0.4851 -8.524747,-1.2 z m 37.986437,-49.4648 c 7.32205,-4.2496 8.72279,-13.5798 2.91122,-19.3914 -3.44421,-3.44416 -8.66743,-4.93106 -17.34766,-4.93816 l -6.75,-0.01 v 13.63866 13.6387 l 8.93644,-0.5095 c 6.27094,-0.3576 9.92478,-1.0832 12.25,-2.4327 z m 44.84874,48.7305 c -1.56797,-2.9297 -1.41151,-87.28926 0.16482,-88.86566 1.88491,-1.8849 51.14759,-1.691 52.72323,0.2075 0.72425,0.8727 1.05577,4.1976 0.87245,8.75 l -0.29568,7.3425 -17.75,0.2731 -17.75,0.273 v 9.45086 9.4509 l 15.25,0.2761 15.25,0.276 v 8 8 l -15.25,0.276 -15.25,0.2761 v 10.5119 10.512 l 16.95697,-0.1236 c 9.32633,-0.068 17.42633,0.1665 18,0.521 1.45949,0.902 1.32696,13.8427 -0.15697,15.3266 -0.87,0.87 -8.14774,1.2 -26.46482,1.2 -23.95512,0 -25.31847,-0.1003 -26.3,-1.9343 z m 162.02116,0.04 c -0.68412,-1.2787 -1.05634,-14.3182 -1.05634,-37.0061 v -35.03186 l -10.75,-0.2839 -10.75,-0.2838 -0.295,-7.9132 c -0.21083,-5.6552 0.0745,-8.1475 1,-8.7346 0.71225,-0.4519 14.57,-0.8215 30.795,-0.8215 16.225,0 30.08275,0.3696 30.795,0.8215 0.92549,0.5871 1.21083,3.0794 1,8.7346 l -0.295,7.9132 -11.23771,0.2826 -11.23772,0.2827 -0.26228,36.71726 -0.26229,36.7174 -8.19366,0.2895 c -7.30027,0.258 -8.30884,0.074 -9.25,-1.6842 z m 38.53468,1.042 c -0.82491,-1.3348 31.32168,-88.49506 33.15598,-89.89726 1.8039,-1.3789 16.9388,-1.7367 18.9661,-0.4484 1.6182,1.0283 33.5644,88.94026 32.7807,90.20826 -0.92,1.4888 -17.0361,1.2591 -18.2379,-0.2599 -0.5439,-0.6875 -2.2109,-4.9625 -3.7045,-9.5 l -2.7156,-8.25 h -17.6679 -17.6679 l -2.88186,8.2474 c -1.58502,4.5361 -3.32762,8.8099 -3.87244,9.4974 -1.13734,1.4352 -17.29471,1.7887 -18.15468,0.3973 z m 53.42578,-34.8977 c 0.031,-1.371 -10.508,-31.25 -11.0168,-31.2344 -0.3854,0.012 -5.9048,14.4959 -11.8333,31.0535 -0.1935,0.5402 4.5285,0.9309 11.25,0.9309 6.3708,0 11.5909,-0.3375 11.6001,-0.75 z m 134.1832,34.55 c -0.8967,-0.8967 -1.2,-12.2395 -1.2,-44.8776 0,-37.37896 0.2138,-43.85486 1.4828,-44.90806 1.0958,-0.9094 6.3804,-1.1303 20.25,-0.8462 17.6211,0.361 19.1031,0.541 24.2672,2.9483 11.1917,5.2172 16.8413,13.037 17.769,24.59476 1.0544,13.1349 -3.1233,20.4095 -16.608,28.9196 -0.1865,0.1177 4.2034,7.7129 9.7553,16.8784 5.552,9.1654 9.8405,17.0753 9.5301,17.5776 -0.3105,0.5023 -4.7113,0.9132 -9.7797,0.9132 h -9.2152 l -8.7965,-16 -8.7966,-16 h -5.4292 -5.4292 v 14.8 c 0,10.1778 -0.3748,15.1748 -1.2,16 -0.708,0.708 -4.1111,1.2 -8.3,1.2 -4.1889,0 -7.592,-0.492 -8.3,-1.2 z m 37.5202,-49.4534 c 7.5705,-3.6985 9.2772,-13.5031 3.3775,-19.4028 -3.3879,-3.38786 -8.6522,-4.93086 -16.8477,-4.93816 l -6.25,-0.01 v 13.64286 13.6429 l 7.9702,-0.5463 c 4.6877,-0.3213 9.5268,-1.3068 11.75,-2.3929 z m 42.8278,49.7311 c -0.6462,-1.0455 30.8198,-87.61096 32.6458,-89.81116 1.4772,-1.78 18.1632,-1.7462 19.6454,0.04 2.0895,2.5178 33.2197,89.03486 32.3493,89.90526 -0.4791,0.479 -4.8306,0.7399 -9.6702,0.5797 l -8.7991,-0.2912 -3.1096,-9 -3.1096,-9 -17.6123,-0.2725 -17.6124,-0.2725 -2.6661,7.7725 c -3.9084,11.394 -3.1382,10.7328 -12.8825,11.0602 -4.9433,0.1662 -8.8227,-0.1339 -9.1787,-0.71 z m 53.452,-34.8438 c 0,-0.4214 -2.25,-7.0516 -5,-14.7339 -2.75,-7.6823 -5,-14.5375 -5,-15.2339 0,-3.7591 -2.0576,0.2772 -6.8775,13.4912 -2.9577,8.1085 -5.5933,15.3052 -5.857,15.9927 -0.3666,0.9557 2.2529,1.25 11.1275,1.25 6.3839,0 11.607,-0.3447 11.607,-0.7661 z m 48.0352,33.8318 c -1.568,-2.9297 -1.4115,-87.28926 0.1648,-88.86566 0.6716,-0.6716 3.8918,-1.2 7.3129,-1.2 7.1556,0 6.6343,-0.4411 19.4985,16.5 4.594,6.04996 13.5583,17.71406 19.9207,25.92006 l 11.5679,14.9201 0.5,-28.4201 0.5,-28.42006 h 8.5 8.5 v 45.49996 45.5 l -7.5183,0.2879 -7.5182,0.2879 -20.2333,-26.9168 c -11.1283,-14.8042 -20.9076,-27.4763 -21.7318,-28.1603 -1.3249,-1.0996 -1.4984,1.8736 -1.4984,25.6789 0,19.6063 -0.3261,27.2485 -1.2,28.1224 -0.7131,0.7131 -4.1477,1.2 -8.4648,1.2 -6.1591,0 -7.4224,-0.2944 -8.3,-1.9343 z m 116.298,0.7234 c -0.4583,-0.709 -0.9424,-17.2641 -1.0758,-36.7891 l -0.2425,-35.49996 -10.7575,-0.5 -10.7574,-0.5 -0.29,-8.2209 c -0.2769,-7.8497 -0.1865,-8.2462 2,-8.7801 1.2595,-0.3076 15.565,-0.4332 31.79,-0.2791 l 29.5,0.2801 v 8.5 8.5 l -11.2377,0.2826 -11.2377,0.2827 -0.2623,36.71726 -0.2623,36.7174 -8.1668,0.2891 c -5.8332,0.2065 -8.4049,-0.079 -9,-1 z M 467.94431,922.44133 c -13.2145,-1.1424 -35.0393,-4.9725 -49.9801,-8.7711 C 360.71622,899.1152 310.48135,869.75799 267.94306,825.998 232.38476,789.41846 207.57732,748.82 191.94472,701.62335 c -29.70102,-89.67086 -18.55088,-188.29593 30.41204,-269 41.41916,-68.26993 111.26625,-121.53733 183.58115,-140.00422 7.1535,-1.82679 15.0836,-3.62772 17.6225,-4.00207 l 4.6161,-0.68064 5.5934,11.63227 c 3.0764,6.39775 6.547,12.97137 7.7124,14.60804 1.1654,1.63668 1.9468,3.49226 1.7364,4.12352 -0.2105,0.63126 -5.7639,2.3784 -12.341,3.88253 -49.29087,11.27239 -90.37973,32.64693 -127.91949,66.54404 -10.91588,9.85667 -27.93294,28.20737 -29.75113,32.08276 -0.56413,1.20243 -0.77556,2.83809 -0.46983,3.63481 0.30573,0.79672 8.12739,7.2008 17.38146,14.23128 9.25408,7.03049 24.25059,18.63783 33.32559,25.7941 9.075,7.15628 31.9763,25.19339 50.89177,40.08249 18.91548,14.8891 40.90673,32.24609 48.86953,38.57109 7.9628,6.325 15.322,12.11602 16.3537,12.86893 1.6949,1.23688 2.4995,0.7855 8.3413,-4.67914 7.5567,-7.06899 15.7262,-12.08869 25.2371,-15.50692 l 6.8066,-2.44631 0.6087,-25.36828 c 1.0151,-42.30824 0.9586,-155.88656 -0.081,-162.23274 -1.614,-9.85524 -4.4062,-14.18619 -17.5558,-27.23022 -10.3089,-10.22615 -12.8204,-13.34893 -16.256,-20.21313 -2.2349,-4.46514 -4.8055,-11.45392 -5.7125,-15.53063 -1.6043,-7.21092 -1.5649,-8.30487 1.4506,-40.28688 1.7047,-18.08107 3.704,-39.97467 4.4427,-48.65244 1.0581,-12.42905 1.722,-16.19635 3.1281,-17.75 2.4802,-2.74064 5.9399,-2.46781 8.4023,0.66262 2.0244,2.57361 2.0726,3.64285 2.0726,46 0,42.03181 0.062,43.42663 2,45.36514 2.89,2.89009 8.3299,2.66734 10.7751,-0.44122 1.8065,-2.29669 1.9527,-5.02336 2.4688,-46.05667 0.5001,-39.75355 0.7044,-43.78753 2.3073,-45.55878 2.1859,-2.41537 5.6369,-2.50188 7.7113,-0.19333 1.3563,1.50938 1.6727,7.90924 2.3017,46.54608 0.7129,43.79154 0.7758,44.82868 2.805,46.25 2.8012,1.96201 6.9513,1.83298 9.523,-0.29608 2.0754,-1.71818 2.1258,-2.56479 2.7742,-46.55775 0.6444,-43.72369 0.7102,-44.84263 2.7195,-46.25 2.7626,-1.93504 4.9654,-1.81651 6.9477,0.37388 1.4505,1.60288 1.7188,6.9747 2.2847,45.75 0.6185,42.3839 0.7132,44.01325 2.6857,46.18387 2.6234,2.88702 7.9348,3.01116 10.696,0.25 1.9393,-1.93939 2,-3.33333 2,-46 0,-42.66667 0.061,-44.06061 2,-46 2.4638,-2.46389 5.121,-2.54822 7.8769,-0.25 1.7856,1.48911 2.2546,3.53895 3.1458,13.75 0.576,6.6 2.6559,28.65 4.622,49 3.4573,35.78371 3.5231,37.24004 2.002,44.30213 -2.8464,13.21566 -6.6001,19.28432 -20.225,32.69787 -6.7039,6.6 -13.3488,13.8 -14.7664,16 -5.6853,8.82304 -5.6892,8.90205 -5.4106,109.53507 l 0.2553,92.17843 9.5266,3.14325 c 11.9107,3.92983 17.2935,7.09395 25.9327,15.24369 l 6.8223,6.43586 5.8592,-4.87056 c 3.2225,-2.6788 28.4674,-22.64821 56.0997,-44.37646 80.2473,-63.1013 105.2595,-83.52327 105.2595,-85.94242 0,-4.69837 -28.0561,-33.83226 -46.058,-47.82744 -20.1524,-15.66699 -43.8201,-29.62186 -64.942,-38.29088 -15.7322,-6.45692 -43.1176,-14.51529 -55.3295,-16.28113 -2.6563,-0.38409 -5.0608,-1.30092 -5.3434,-2.03739 -0.2826,-0.73647 0.5407,-2.8175 1.8295,-4.62453 1.2889,-1.80702 4.8706,-8.23549 7.9594,-14.28549 4.1235,-8.07649 6.1697,-11.08315 7.6991,-11.31287 1.1456,-0.17208 9.0777,1.50855 17.6269,3.73474 96.8058,25.20813 178.0957,100.76957 213.034,198.02178 12.7047,35.3638 18.7113,70.1949 18.8068,109.05635 0.076,31.0637 -2.7617,54.14352 -10.2828,83.62291 -18.2029,71.34765 -65.8016,139.61853 -127.5,182.8735 -44.7967,31.40568 -94.9054,50.44527 -147.5,56.04487 -12.1332,1.2918 -50.0088,1.7701 -61.5,0.7767 z m 14.3,-35.51798 c 0.8867,-0.88669 1.2,-10.15556 1.2,-35.5 v -34.3 h -71.2775 c -78.2724,0 -73.94563,0.33677 -77.22821,-6.01104 -1.99439,-3.85673 -1.88409,-5.59916 0.50571,-7.98896 1.96347,-1.96347 3.33333,-2 75,-2 h 73 V 739.6424 678.16145 l -2.75,-0.60779 c -12.7593,-2.82004 -24.1085,-8.67302 -33.2768,-17.1615 l -6.9711,-6.45416 -16.7511,12.42066 c -9.213,6.83136 -23.726,17.53399 -32.251,23.78362 -58.45923,42.85614 -118,87.71444 -118,88.90175 0,2.57444 16.05536,19.92891 31.52775,34.07877 43.68966,39.95523 92.85111,63.80007 148.35345,71.95603 22.1301,3.25198 27.1887,3.57463 28.9188,1.84452 z m -133.8,-99.87368 c 0,-13.83306 7.37871,-28.93946 19.2372,-39.38422 7.24025,-6.3771 17.40218,-11.15275 29.2628,-13.75222 5.5,-1.20542 10.1638,-2.30257 10.364,-2.43812 0.2002,-0.13554 -0.5873,-1.45582 -1.75,-2.93396 -4.92088,-6.25589 0.087,-13.4178 9.3818,-13.4178 6.7593,0 11.1858,7.25034 8.2216,13.46646 l -1.5524,3.25542 8.1014,2.16832 c 24.19,6.47441 39.9477,21.95985 45.2575,44.47569 0.7956,3.37376 1.4532,8.27161 1.4613,10.88411 l 0.015,4.75 h -64 -63.99998 z m 188.5,98.5004 c 48.9014,-7.29813 94.846,-27.29629 133.5,-58.10815 9.9292,-7.91476 40,-37.09565 40,-38.81624 0,-1.29704 -9.003,-8.20969 -92.5,-71.02274 -70.1158,-52.74667 -71.7071,-53.93839 -73.2441,-54.85136 -0.714,-0.42411 -2.6314,0.30286 -4.5,1.70614 -5.1616,3.87625 -14.9781,8.44308 -22.8197,10.61609 -3.9716,1.10058 -7.473,2.25303 -7.781,2.56099 -0.7254,0.7254 -0.1583,208.67459 0.5723,209.85673 0.6473,1.04732 12.5103,0.18705 26.7725,-1.94146 z m 23.746,-56.02301 c -4.7319,-2.41012 -14.2413,-13.00775 -17.9763,-20.03348 -7.0382,-13.23908 -8.3471,-32.59806 -2.9178,-43.15613 3.849,-7.48503 8.9327,-12.71537 15.4876,-15.93432 4.9677,-2.43956 6.808,-2.77978 15.0363,-2.77978 h 9.3758 l -0.5578,-7.5 c -0.3068,-4.125 -1.3321,-9.41364 -2.2785,-11.75254 -1.6408,-4.05505 -1.6367,-4.3453 0.087,-6.25 0.9942,-1.0986 2.3762,-1.99746 3.0711,-1.99746 1.8011,0 5.071,5.68586 6.4699,11.25 0.6567,2.6125 1.3287,4.75 1.4932,4.75 0.1646,0 2.5449,-1.12795 5.2896,-2.50656 6.989,-3.51038 13.0901,-4.17906 18.6738,-2.04664 2.475,0.94524 4.5001,2.34074 4.5001,3.10111 0,1.96711 -5.5099,7.98609 -9.6568,10.54902 l -3.517,2.17361 5.9719,2.86623 c 7.0591,3.38807 12.4353,8.99291 16.0599,16.74322 3.6932,7.89668 4.2529,22.14949 1.252,31.88104 -3.6271,11.76245 -11.9078,23.48859 -20.5264,29.06715 -3.6451,2.35931 -4.9427,2.62146 -12.0836,2.44102 -4.4,-0.11118 -9.575,-0.23584 -11.5,-0.27703 -1.925,-0.0412 -6.875,0.18247 -11,0.49702 -5.8578,0.44668 -8.2125,0.20901 -10.754,-1.08548 z m 172.8689,-72.15848 c 24.8725,-38.73886 40.2331,-82.72603 44.9291,-128.66047 1.5221,-14.88835 0.705,-54.0453 -1.4207,-68.08476 -3.9701,-26.2208 -11.0264,-51.27728 -21.1212,-75 -5.0625,-11.89686 -15.4108,-31.93069 -18.4008,-35.62321 -1.6788,-2.0732 -2.0447,-2.15081 -3.9219,-0.83168 -1.1387,0.80019 -20.8824,16.33778 -43.8749,34.52798 -22.9925,18.1902 -60.3989,47.61988 -83.1254,65.39929 -38.946,30.46823 -41.2828,32.47567 -40.6568,34.9269 5.1916,20.3276 4.6108,32.90729 -2.2637,49.03315 l -3.5947,8.43243 2.4048,1.56757 c 1.3226,0.86216 31.2222,23.16757 66.4436,49.56757 35.2213,26.4 68.9773,51.69944 75.0132,56.22098 6.036,4.52154 13.6015,10.25904 16.8124,12.75 3.2108,2.49096 6.1358,4.52687 6.5,4.52425 0.3641,-0.003 3.1888,-3.94013 6.277,-8.75 z m -95.3669,-96.67198 c -5.8754,-2.0967 -10.3142,-6.0618 -13.1446,-11.74163 -2.7764,-5.57146 -3.4492,-12.58585 -1.4034,-14.63162 1.7328,-1.73281 117.8672,-1.73281 119.6,0 1.8657,1.86574 1.416,8.72239 -0.8838,13.47301 -2.788,5.75937 -9.8352,11.81735 -15.3673,13.21036 -6.8083,1.71434 -83.8823,1.44517 -88.8009,-0.31012 z m -16.9923,-38.32804 c -1.5094,-0.93587 -3.4879,-3.26853 -4.3968,-5.18369 -1.4596,-3.076 -1.4894,-3.94271 -0.2556,-7.43123 0.7682,-2.17201 2.6668,-4.88988 4.2191,-6.0397 2.7705,-2.05215 3.8368,-2.09626 58,-2.39891 30.3477,-0.16957 57.6285,-0.0136 60.6241,0.34651 12.2469,1.47242 16.596,14.50231 6.8284,20.45761 -3.1774,1.93728 -5.0463,1.99604 -62.7749,1.97385 -54.2552,-0.0208 -59.7419,-0.17286 -62.2443,-1.72444 z m 2.7981,-30.58222 c -1.4976,-1.09509 -1.7465,-2.32632 -1.3751,-6.80427 0.6546,-7.89353 4.2024,-14.37896 12.2536,-22.3995 8.2076,-8.17635 17.5883,-13.48981 29.2672,-16.5776 10.0035,-2.64484 26.8182,-2.87343 36.7,-0.49893 22.6958,5.45355 43.5579,24.99546 43.5907,40.83213 0.01,3.64424 -0.4294,4.94987 -1.9245,5.75 -1.2688,0.67907 -21.6714,1.03518 -59.3088,1.03518 -46.3128,0 -57.7272,-0.25778 -59.2031,-1.33701 z M 288.66187,733.311 c 46.65481,-34.75294 61.94326,-46.05271 101.53244,-75.04314 20.4875,-15.00262 37.25,-27.40059 37.25,-27.55104 0,-0.15045 -0.9303,-3.83303 -2.0672,-8.18351 -2.5528,-9.76796 -2.7772,-24.11157 -0.5274,-33.72201 0.877,-3.74663 1.5946,-6.96097 1.5946,-7.14297 0,-1.76293 -158.25275,-126.22147 -167.22713,-131.51649 -3.28547,-1.93847 -3.53043,-1.95231 -5.01348,-0.28327 -2.80076,3.15201 -12.71078,21.66038 -18.38848,34.34307 -35.66058,79.65774 -32.8606,171.39715 7.586,248.55051 7.68872,14.66652 12.67769,22.3612 14.49822,22.3612 0.81399,0 14.65708,-9.81556 30.76243,-21.81235 z m -8.71756,-76.01576 c -2.2,-1.05583 -5.19085,-3.21394 -6.64634,-4.79579 -3.61541,-3.92931 -10.87047,-15.41078 -15.08713,-23.8761 -6.20477,-12.45664 -7.24273,-16.75108 -7.25522,-30.01762 -0.0109,-11.56578 0.11179,-12.2678 3.2628,-18.6717 4.31494,-8.76936 11.92617,-15.81355 19.74321,-18.27231 4.42382,-1.39146 7.74989,-1.68651 14.6055,-1.29562 l 8.87718,0.50615 0.022,-7.62445 c 0.0257,-8.92367 2.05419,-14.32785 6.91247,-18.41582 3.73212,-3.14037 6.13277,-3.4179 8.2923,-0.95863 3.07836,3.50563 3.06801,5.99397 -0.0415,9.98192 -3.50879,4.50001 -4.28259,7.27785 -3.53911,12.70497 l 0.55663,4.06311 h 11.64863 c 10.69585,0 12.10868,0.22593 17.27317,2.76217 6.91959,3.39815 14.18401,10.98583 17.54371,18.32436 3.37045,7.36204 4.13092,18.39572 1.91645,27.80589 -3.25235,13.82051 -15.62422,35.86143 -24.71976,44.03911 -5.64797,5.078 -10.21581,6.26564 -19.65911,5.11137 -7.15867,-0.87502 -9.55093,-0.88563 -20.70583,-0.0918 -7.68151,0.54665 -9.586,0.35924 -13,-1.27922 z m 229.7118,-19.92915 c 10.2858,-4.57659 17.5962,-13.27042 20.3849,-24.24274 3.9987,-15.73318 -4.5424,-32.39573 -20.4216,-39.83959 -4.7501,-2.22678 -7.0606,-2.66041 -14.1751,-2.66041 -7.0945,0 -9.4293,0.43574 -14.12,2.63517 -7.6408,3.58267 -12.9389,8.622 -16.9231,16.09649 -4.4982,8.43879 -5.2676,19.30739 -1.9832,28.015 3.7651,9.98221 14.0597,19.18597 24.4667,21.87412 5.4216,1.40042 17.6741,0.38992 22.7714,-1.87804 z m -90.8133,-149.50978 c -69.03947,-44.46008 -68.39841,-44.02751 -68.40197,-46.156 -0.005,-3.04686 23.92726,-26.26197 33.54757,-32.54218 4.33647,-2.83088 11.05056,-6.64682 14.9202,-8.47986 13.0094,-6.16254 29.5357,-11.24873 29.5357,-9.09 0,0.25571 4.725,23.21086 10.5,51.01145 5.775,27.80058 10.5,51.82162 10.5,53.38009 0,3.38967 -2.7388,6.15 -6.0787,6.1265 -1.3922,-0.01 -11.8149,-6.06631 -24.5228,-14.25 z m 6.6482,-19.27775 c 3.775,-3.61661 3.9133,-7.661 0.3743,-10.94086 -5.0766,-4.70483 -12.6396,-4.42016 -16.894,0.63589 -3.5317,4.1972 -3.304,8.01821 0.6776,11.36844 2.7634,2.32526 3.8711,2.63241 8.0467,2.23119 3.5519,-0.34129 5.6292,-1.21922 7.7954,-3.29466 z m -38.0467,-24.45521 c 1.1,-1.1 2,-2.9 2,-4 0,-2.96807 -3.56022,-6 -7.04545,-6 -3.93857,0 -8.05056,3.91685 -7.26513,6.92035 1.27536,4.877 8.6647,6.72553 12.31058,3.07965 z m 30.5454,-12.45455 c 5.9281,-5.92801 1.1577,-16.54545 -7.4337,-16.54545 -3.0953,0 -4.8701,0.727 -7.5769,3.10359 -4.65847,4.09019 -4.87625,8.70881 -0.61172,12.97333 2.46992,2.46991 3.71722,2.92308 8.04542,2.92308 4.1053,0 5.6098,-0.48739 7.5769,-2.45455 z m 146.6546,43.25455 c -0.66,-0.66 -1.2,-3.09204 -1.2,-5.40454 0,-4.02709 -0.2216,-4.33031 -5.25,-7.18436 -7.4839,-4.24773 -16.955,-14.16973 -21.1547,-22.1616 -3.7985,-7.22867 -7.1131,-18.25787 -6.2011,-20.6344 0.4694,-1.22311 9.0239,-1.39371 58.8275,-1.17317 l 58.2783,0.25807 -0.1934,4.29066 c -0.2398,5.3212 -3.4812,14.20132 -7.4524,20.41646 -3.7217,5.82468 -14.1755,15.71801 -19.9982,18.92601 -4.0127,2.21085 -4.3996,2.77845 -4.9097,7.20308 -0.3045,2.64171 -1.2045,5.21487 -2,5.71814 -2.2732,1.4382 -47.2886,1.20332 -48.7463,-0.25435 z M 332.62862,433.16408 c -6.55596,-4.23732 -8.27997,-7.3406 -6.3866,-11.4961 1.78796,-3.92414 14.08729,-17.37089 23.07862,-25.23165 16.49569,-14.42153 36.69957,-25.60865 56.77407,-31.43645 10.6621,-3.0953 11.2625,-3.16359 13.7107,-1.55947 2.8344,1.85713 4.7676,7.49864 4.9966,14.58115 l 0.1423,4.39822 -12,4.18291 c -25.15296,8.76772 -38.2776,17.14331 -57.56916,36.73817 -7.46304,7.58037 -14.25578,13.78249 -15.09497,13.78249 -0.83919,0 -4.28239,-1.78167 -7.65156,-3.95927 z m 204.06729,-22.72945 c -2.6839,-0.53713 -4.0375,-4.65937 -2.2408,-6.82427 1.0535,-1.26944 6.9325,-1.48701 40.1801,-1.48701 h 38.9461 l 19.863,-8.5 c 10.9246,-4.675 20.5137,-8.5 21.309,-8.5 2.2369,0 3.9766,2.72965 3.3377,5.23701 -0.4725,1.85455 -4.4183,3.88737 -21.8616,11.26299 l -21.2851,9 -38,0.13062 c -20.9,0.0718 -39.0118,-0.0719 -40.2484,-0.31934 z"
     id="path55"
     inkscape:connector-curvature="0" />
</svg>
